<svg width="19" height="19" viewBox="0 0 19 19" fill="none" xmlns="http://www.w3.org/2000/svg">
<path d="M9.33333 0.22937C10.571 0.22937 11.758 0.721035 12.6332 1.5962C13.5083 2.47137 14 3.65836 14 4.89604C14 6.13371 13.5083 7.3207 12.6332 8.19587C11.758 9.07104 10.571 9.5627 9.33333 9.5627C8.09566 9.5627 6.90867 9.07104 6.0335 8.19587C5.15833 7.3207 4.66667 6.13371 4.66667 4.89604C4.66667 3.65836 5.15833 2.47137 6.0335 1.5962C6.90867 0.721035 8.09566 0.22937 9.33333 0.22937ZM9.33333 11.896C14.49 11.896 18.6667 13.9844 18.6667 16.5627V18.896H0V16.5627C0 13.9844 4.17667 11.896 9.33333 11.896Z" fill="#153462"/>
</svg>
